<svg width="187" height="36" viewBox="0 0 187 36" fill="none" xmlns="http://www.w3.org/2000/svg">
<g clip-path="url(#clip0_22_55)">
<path d="M30.3212 35.6304L32.301 23.0427L34.8013 8.52249H34.697L22.6119 34.899H15.6836L14.3815 8.52249H14.2772L11.2559 23.0427L8.33885 35.6304H0.212524L8.91181 0.426697H20.8929L22.1564 20.693L30.9623 0.426697H44.7902C40.7127 2.56103 38.0478 6.40877 38.0478 11.5821C38.0478 16.9109 42.1651 19.8904 45.6405 21.8957C48.7415 23.6146 50.3456 24.7035 50.3456 26.5942C50.3456 28.8863 48.0467 29.9173 45.5333 29.8601C43.4999 29.8601 41.5583 29.4873 39.8577 28.9141V28.8655L39.8513 28.9118L36.6578 27.4536L33.6636 35.4753L33.8802 35.6304H30.3217H30.3212Z" fill="#990000"/>
<path d="M80.1743 35.6304C80.1743 35.6304 73.2143 35.6304 68.6303 35.6304C64.3158 35.6304 60.6053 34.6554 57.6956 32.7055C59.1875 30.6783 60.0764 28.0668 60.0764 24.8178C60.0764 20.2341 57.1891 17.0828 52.8047 14.6764C50.0781 13.0147 47.6719 11.8116 47.6719 9.97793C47.6719 8.31631 49.2225 6.9412 52.4841 6.9412C55.4783 6.82657 58.1516 7.91518 59.3816 8.54542L60.8073 4.34421C64.7032 1.79125 69.7152 0.500919 75.2983 0.425706C79.6313 0.367317 82.7596 0.362534 84.1031 0.172852L82.4347 9.27808C80.9241 8.66401 78.059 7.89637 74.9856 7.89637C71.756 7.89637 68.9429 8.66385 66.8593 10.0454C63.8902 12.1946 61.8586 15.8789 61.8586 20.5864C61.8586 26.0105 65.4007 28.262 69.9328 28.262C71.5474 28.262 72.4331 28.0573 73.1101 27.8016L74.2562 21.8659H69.516L70.9225 14.958H84.31L80.1743 35.6304Z" fill="#CCCCCC"/>
<path d="M96.4271 4.57874H95.5801V32.193H96.4271V4.57874Z" fill="#CBCBCC"/>
<path d="M109.103 15.0047H107.624L106.728 10.3623L105.002 15.1254H104.461L102.735 10.3623L101.815 15.0047H100.336L102.068 6.38322H102.873L104.731 12.1954L106.541 6.38322H107.347L109.103 15.0047ZM140.664 28.6908L141.185 27.5151C141.625 27.8689 142.12 28.0456 142.671 28.0456C143.242 28.0456 143.527 27.8407 143.527 27.4327C143.527 27.1913 143.44 26.9944 143.268 26.8418C143.096 26.6891 142.763 26.506 142.266 26.2992C141.182 25.8467 140.64 25.2139 140.64 24.3997C140.64 23.8531 140.847 23.4289 141.262 23.1236C141.677 22.8199 142.206 22.6672 142.851 22.6672C143.505 22.6672 144.118 22.8141 144.693 23.1076L144.272 24.247C143.952 23.9738 143.507 23.8371 142.935 23.8371C142.424 23.8371 142.168 24.042 142.168 24.45C142.168 24.6128 142.252 24.7575 142.42 24.8883C142.589 25.0168 142.947 25.1918 143.499 25.4106C144.052 25.6277 144.449 25.8931 144.691 26.2025C144.934 26.5141 145.054 26.89 145.054 27.3279C145.054 27.9149 144.838 28.3751 144.405 28.7106C143.974 29.0464 143.387 29.2152 142.643 29.2152C142.224 29.2152 141.887 29.181 141.637 29.1126C141.384 29.0425 141.059 28.9018 140.665 28.6907L140.664 28.6908ZM179.553 28.8507V31.4791H178.086V22.7005H179.553V23.1246C179.922 22.7609 180.373 22.5799 180.91 22.5799C182.916 22.5799 183.919 23.6873 183.919 25.9043C183.919 26.937 183.642 27.7332 183.087 28.2918C182.534 28.8487 181.776 29.1281 180.816 29.1281C180.355 29.1281 179.934 29.0357 179.553 28.8508V28.8507ZM179.553 24.246V27.5621C179.82 27.7772 180.13 27.8857 180.487 27.8857C181.164 27.8857 181.651 27.7228 181.948 27.3993C182.243 27.0757 182.391 26.5652 182.391 25.8657C182.391 25.12 182.245 24.5957 181.95 24.2902C181.658 23.9867 181.17 23.834 180.493 23.834C180.14 23.834 179.827 23.9707 179.553 24.246ZM175.153 29.0072V28.4766C174.945 28.6534 174.66 28.8063 174.295 28.9348C173.93 29.0636 173.596 29.1278 173.291 29.1278C171.83 29.1278 171.1 28.3501 171.1 26.7943V22.7003H172.567V26.6837C172.567 27.4935 172.93 27.8976 173.654 27.8976C173.989 27.8976 174.297 27.8112 174.584 27.6385C174.869 27.4656 175.059 27.2647 175.154 27.0376V22.7003H176.62V29.0072H175.154H175.153ZM163.884 25.8398C163.884 24.8772 164.161 24.0931 164.715 23.4884C165.268 22.8834 165.999 22.5798 166.907 22.5798C167.861 22.5798 168.601 22.8712 169.13 23.4523C169.657 24.0329 169.922 24.8287 169.922 25.8398C169.922 26.8445 169.653 27.6444 169.116 28.2374C168.577 28.8305 167.841 29.1279 166.907 29.1279C165.951 29.1279 165.21 28.8282 164.68 28.2295C164.149 27.6304 163.884 26.8326 163.884 25.8398ZM165.412 25.8398C165.412 27.2285 165.911 27.9219 166.907 27.9219C167.364 27.9219 167.725 27.7409 167.993 27.3812C168.26 27.0195 168.394 26.5052 168.394 25.8398C168.394 24.4711 167.899 23.7858 166.907 23.7858C166.448 23.7858 166.085 23.9667 165.817 24.3265C165.546 24.6882 165.412 25.1928 165.412 25.8398H165.412ZM162.79 24.0754C162.527 23.8985 162.241 23.8102 161.928 23.8102C161.588 23.8102 161.285 23.9649 161.02 24.2763C160.756 24.5858 160.623 24.9656 160.623 25.4139V29.0075H159.156V22.7007H160.623V23.2793C161.034 22.8132 161.582 22.5799 162.263 22.5799C162.764 22.5799 163.147 22.6563 163.414 22.8112L162.79 24.0754H162.79ZM157.517 21.0846L156.877 22.3145C156.697 22.1557 156.42 21.9972 156.043 21.8403C155.668 21.6813 155.346 21.603 155.077 21.603C154.233 21.603 153.566 21.8903 153.079 22.4631C152.59 23.0378 152.345 23.8056 152.345 24.7703C152.345 25.6869 152.584 26.4183 153.063 26.9669C153.542 27.5156 154.195 27.7889 155.019 27.7889C155.562 27.7889 156.009 27.6403 156.362 27.3409V25.6427H155.171V24.3403H157.889V28.2031C157.524 28.5026 157.057 28.7337 156.484 28.9005C155.911 29.0674 155.34 29.1517 154.773 29.1517C153.54 29.1517 152.562 28.7477 151.84 27.9377C151.119 27.1278 150.758 26.0585 150.758 24.7281C150.758 23.3997 151.151 22.3182 151.936 21.4862C152.724 20.6562 153.78 20.2401 155.111 20.2401C156.053 20.2401 156.855 20.5216 157.517 21.0842L157.517 21.0846ZM137.71 29.0072V25.0539C137.71 24.2237 137.339 23.8099 136.598 23.8099C136.379 23.8099 136.167 23.8742 135.962 24.0045C135.758 24.1333 135.615 24.2839 135.533 24.4528V29.0072H134.066V24.8226C134.066 24.5132 133.969 24.2661 133.777 24.083C133.585 23.9003 133.314 23.8099 132.965 23.8099C132.781 23.8099 132.581 23.8782 132.362 24.0167C132.146 24.1554 131.987 24.3064 131.889 24.473V29.0072H130.422V22.7003H131.432L131.732 23.255C132.139 22.8049 132.666 22.5798 133.312 22.5798C134.148 22.5798 134.775 22.8089 135.198 23.2672C135.382 23.0581 135.639 22.8913 135.968 22.7668C136.299 22.6423 136.627 22.5798 136.956 22.5798C137.657 22.5798 138.203 22.7807 138.591 23.1826C138.982 23.5866 139.177 24.1394 139.177 24.8428V29.0072H137.71H137.71ZM129.123 26.3063H124.629C124.657 26.8085 124.83 27.2004 125.146 27.4798C125.463 27.7591 125.89 27.8978 126.427 27.8978C127.099 27.8978 127.608 27.7249 127.957 27.3794L128.526 28.5006C128.009 28.9188 127.239 29.1279 126.213 29.1279C125.255 29.1279 124.497 28.8464 123.938 28.2818C123.38 27.719 123.102 26.9312 123.102 25.9221C123.102 24.9274 123.409 24.1215 124.02 23.5046C124.633 22.8875 125.367 22.5799 126.225 22.5799C127.137 22.5799 127.868 22.8532 128.42 23.3998C128.971 23.9466 129.248 24.6419 129.248 25.4862C129.248 25.667 129.206 25.9403 129.123 26.3061L129.123 26.3063ZM124.69 25.1967H127.768C127.666 24.2724 127.159 23.8102 126.247 23.8102C125.411 23.8102 124.892 24.2724 124.69 25.1967ZM118.958 23.8823H118.225V22.7005H118.958V21.4204L120.426 20.8797V22.7005H122.158V23.8823H120.426V26.6477C120.426 27.1 120.496 27.4196 120.638 27.6063C120.78 27.7934 121.027 27.8857 121.382 27.8857C121.737 27.8857 122.067 27.7891 122.374 27.5963V28.9508C122.033 29.0694 121.546 29.1278 120.913 29.1278C120.286 29.1278 119.803 28.9508 119.466 28.595C119.127 28.2392 118.959 27.7328 118.959 27.0756V23.8821L118.958 23.8823ZM113.178 28.6036L113.699 27.4279C114.138 27.7817 114.633 27.9583 115.184 27.9583C115.755 27.9583 116.04 27.7535 116.04 27.3454C116.04 27.1041 115.954 26.9072 115.782 26.7546C115.609 26.6018 115.276 26.4188 114.78 26.2119C113.695 25.7595 113.154 25.1266 113.154 24.3125C113.154 23.7659 113.36 23.3416 113.775 23.0363C114.19 22.7327 114.719 22.5799 115.365 22.5799C116.018 22.5799 116.632 22.7269 117.207 23.0203L116.786 24.1597C116.465 23.8866 116.02 23.7499 115.449 23.7499C114.938 23.7499 114.681 23.9547 114.681 24.3628C114.681 24.5256 114.766 24.6702 114.934 24.801C115.102 24.9295 115.461 25.1042 116.012 25.3234C116.566 25.5405 116.962 25.8057 117.205 26.1153C117.448 26.4268 117.568 26.8027 117.568 27.2407C117.568 27.8275 117.351 28.2879 116.918 28.6234C116.488 28.9592 115.9 29.1279 115.156 29.1279C114.738 29.1279 114.401 29.0938 114.15 29.0253C113.898 28.9552 113.573 28.8144 113.178 28.6034L113.178 28.6036ZM109.899 30.0183C109.742 30.4382 109.408 30.788 108.892 31.0633C108.379 31.3406 107.78 31.4793 107.096 31.4793V30.1769C108.227 30.1769 108.792 29.8916 108.792 29.3229C108.792 28.9473 108.636 28.3705 108.321 27.5926L106.351 22.7007H107.878L109.598 27.0579L111.161 22.7007H112.689L109.899 30.0184L109.899 30.0183ZM100.684 28.5272L101.25 27.1504C101.853 27.5766 102.446 27.7894 103.03 27.7894C103.928 27.7894 104.376 27.476 104.376 26.8489C104.376 26.5555 104.27 26.2763 104.058 26.009C103.847 25.7437 103.41 25.4441 102.749 25.1126C102.087 24.7829 101.641 24.5097 101.412 24.2966C101.181 24.0815 101.005 23.8284 100.883 23.5349C100.759 23.2394 100.696 22.9139 100.696 22.5583C100.696 21.891 100.941 21.3381 101.428 20.9002C101.915 20.4601 102.54 20.2409 103.304 20.2409C104.298 20.2409 105.03 20.4276 105.495 20.8019L105.032 22.1222C104.495 21.7364 103.93 21.5431 103.334 21.5431C102.981 21.5431 102.709 21.6358 102.514 21.8225C102.32 22.0074 102.224 22.2507 102.224 22.5481C102.224 23.0424 102.771 23.5551 103.863 24.0878C104.44 24.369 104.855 24.6305 105.11 24.8675C105.364 25.1045 105.559 25.38 105.691 25.6955C105.826 26.0132 105.892 26.3647 105.892 26.7528C105.892 27.4501 105.617 28.0251 105.066 28.4752C104.517 28.9275 103.781 29.1525 102.857 29.1525C102.053 29.1525 101.33 28.9437 100.684 28.5275L100.684 28.5272ZM154.385 16.6231L155.313 15.4756C155.826 15.95 156.397 16.187 157.028 16.187C157.451 16.187 157.8 16.1227 158.075 15.996C158.349 15.8695 158.486 15.6945 158.486 15.4734C158.486 15.0975 158.183 14.9087 157.576 14.9087C157.409 14.9087 157.165 14.9286 156.84 14.9691C156.515 15.0091 156.271 15.0294 156.105 15.0294C155.094 15.0294 154.589 14.6657 154.589 13.938C154.589 13.7312 154.673 13.526 154.84 13.3251C155.008 13.1242 155.202 12.9774 155.425 12.8829C154.707 12.4186 154.349 11.7595 154.349 10.9076C154.349 10.2341 154.595 9.67742 155.09 9.2372C155.586 8.7968 156.193 8.57793 156.914 8.57793C157.48 8.57793 157.953 8.68431 158.333 8.8956L158.911 8.22842L159.929 9.14681L159.228 9.6573C159.47 10.0253 159.592 10.4592 159.592 10.9597C159.592 11.675 159.374 12.2457 158.937 12.6741C158.498 13.1021 157.947 13.317 157.279 13.317C157.173 13.317 157.033 13.3069 156.856 13.2888L156.614 13.2566C156.588 13.2566 156.484 13.299 156.303 13.3833C156.123 13.4697 156.033 13.5563 156.033 13.6467C156.033 13.8056 156.167 13.8841 156.438 13.8841C156.56 13.8841 156.764 13.8539 157.049 13.7935C157.335 13.7332 157.58 13.7031 157.785 13.7031C159.214 13.7031 159.929 14.2798 159.929 15.4314C159.929 16.0686 159.643 16.569 159.071 16.9327C158.498 17.2967 157.809 17.4773 157.001 17.4773C156.037 17.4773 155.165 17.192 154.385 16.6233L154.385 16.6231ZM155.852 10.9092C155.852 11.279 155.956 11.5764 156.162 11.7994C156.369 12.0227 156.648 12.1352 156.996 12.1352C157.347 12.1352 157.616 12.0267 157.806 11.8076C157.995 11.5906 158.089 11.2909 158.089 10.9092C158.089 10.5958 157.987 10.3283 157.784 10.1112C157.582 9.89234 157.319 9.78364 156.996 9.78364C156.658 9.78364 156.383 9.88838 156.171 10.0992C155.958 10.3083 155.852 10.5795 155.852 10.9094L155.852 10.9092ZM151.795 15.005V11.3575C151.795 10.819 151.693 10.4269 151.486 10.1797C151.282 9.93259 150.947 9.80773 150.482 9.80773C150.267 9.80773 150.037 9.86826 149.792 9.99048C149.548 10.1111 149.357 10.2638 149.221 10.4447V15.0048H147.754V8.69817H148.81L149.079 9.28701C149.477 8.81478 150.067 8.57743 150.844 8.57743C151.592 8.57743 152.182 8.80258 152.614 9.2527C153.045 9.70101 153.262 10.3299 153.262 11.1339V15.0047H151.794L151.795 15.005ZM145.309 6.25061C145.545 6.25061 145.746 6.33506 145.912 6.50182C146.078 6.66874 146.162 6.8698 146.162 7.10682C146.162 7.34219 146.078 7.54507 145.912 7.71182C145.746 7.87858 145.545 7.96303 145.309 7.96303C145.074 7.96303 144.871 7.87858 144.705 7.71182C144.539 7.54507 144.455 7.34219 144.455 7.10682C144.455 6.8698 144.539 6.66874 144.705 6.50182C144.871 6.33506 145.074 6.25061 145.309 6.25061ZM144.551 15.0053V9.90455H143.745V8.69883H146.042V15.0055H144.551V15.0053ZM142.663 10.0736C142.4 9.89663 142.113 9.80822 141.801 9.80822C141.46 9.80822 141.157 9.9631 140.893 10.2747C140.628 10.5841 140.496 10.964 140.496 11.4119V15.0055H139.029V8.69883H140.496V9.27744C140.907 8.81132 141.454 8.57809 142.135 8.57809C142.637 8.57809 143.019 8.65446 143.286 8.80917L142.662 10.0736H142.663ZM131.813 11.838C131.813 10.8754 132.089 10.0913 132.643 9.48626C133.196 8.88125 133.927 8.57793 134.835 8.57793C135.79 8.57793 136.529 8.86921 137.058 9.4503C137.586 10.0311 137.85 10.8271 137.85 11.838C137.85 12.8426 137.582 13.6426 137.044 14.2354C136.505 14.8285 135.77 15.1259 134.835 15.1259C133.879 15.1259 133.138 14.8264 132.609 14.2275C132.077 13.6286 131.813 12.8308 131.813 11.838ZM133.34 11.838C133.34 13.2266 133.839 13.92 134.835 13.92C135.293 13.92 135.653 13.7391 135.922 13.3794C136.189 13.0176 136.323 12.503 136.323 11.838C136.323 10.469 135.828 9.78364 134.835 9.78364C134.377 9.78364 134.014 9.96475 133.745 10.3243C133.475 10.686 133.34 11.1906 133.34 11.8378L133.34 11.838ZM127.67 9.8803H126.936V8.6985H127.67V7.41839L129.137 6.87772V8.6985H130.869V9.8803H129.137V12.6457C129.137 13.098 129.207 13.4175 129.35 13.6043C129.492 13.7914 129.738 13.8837 130.093 13.8837C130.448 13.8837 130.779 13.7871 131.085 13.5943V14.9486C130.745 15.0674 130.258 15.1256 129.624 15.1256C128.997 15.1256 128.514 14.9486 128.177 14.593C127.838 14.2372 127.67 13.7308 127.67 13.0736V9.88014L127.67 9.8803ZM125.008 6.25061C125.245 6.25061 125.445 6.33506 125.611 6.50182C125.778 6.66874 125.862 6.8698 125.862 7.10682C125.862 7.34219 125.778 7.54507 125.611 7.71182C125.445 7.87858 125.245 7.96303 125.008 7.96303C124.773 7.96303 124.571 7.87858 124.404 7.71182C124.238 7.54507 124.154 7.34219 124.154 7.10682C124.154 6.8698 124.238 6.66874 124.404 6.50182C124.571 6.33506 124.773 6.25061 125.008 6.25061ZM124.25 15.0053V9.90455H123.444V8.69883H125.742V15.0055H124.25V15.0053ZM120.807 15.0052V11.3577C120.807 10.8191 120.704 10.4271 120.498 10.1798C120.294 9.93275 119.959 9.80789 119.494 9.80789C119.279 9.80789 119.049 9.86842 118.804 9.99065C118.56 10.1112 118.369 10.264 118.233 10.4449V15.005H116.766V8.69833H117.822L118.091 9.28717C118.489 8.81495 119.079 8.5776 119.856 8.5776C120.604 8.5776 121.194 8.80274 121.627 9.25286C122.058 9.70117 122.274 10.3301 122.274 11.134V15.0048H120.807L120.807 15.0052ZM109.55 11.838C109.55 10.8754 109.827 10.0913 110.38 9.48626C110.933 8.88125 111.665 8.57793 112.572 8.57793C113.527 8.57793 114.266 8.86921 114.795 9.4503C115.323 10.0311 115.587 10.8271 115.587 11.838C115.587 12.8426 115.319 13.6426 114.781 14.2354C114.242 14.8285 113.507 15.1259 112.572 15.1259C111.616 15.1259 110.875 14.8264 110.346 14.2275C109.815 13.6286 109.55 12.8308 109.55 11.838ZM111.077 11.838C111.077 13.2266 111.576 13.92 112.572 13.92C113.03 13.92 113.39 13.7391 113.659 13.3794C113.926 13.0176 114.06 12.503 114.06 11.838C114.06 10.469 113.565 9.78364 112.572 9.78364C112.114 9.78364 111.751 9.96475 111.482 10.3243C111.211 10.686 111.077 11.1906 111.077 11.8378L111.077 11.838Z" fill="#999999"/>
</g>
<defs>
<clipPath id="clip0_22_55">
<rect width="187" height="36" fill="white"/>
</clipPath>
</defs>
</svg>
