<svg width="16" height="16" viewBox="0 0 16 16" fill="none" xmlns="http://www.w3.org/2000/svg">
<path fill-rule="evenodd" clip-rule="evenodd" d="M3.97849 0C2.88723 0 2 0.896875 2 2V14C2 15.1031 2.88723 16 3.97849 16H11.8925C12.9837 16 13.871 15.1031 13.871 14V5H9.91398C9.3668 5 8.92473 4.55312 8.92473 4V0H3.97849ZM9.91398 4H13.871L9.91398 0V4ZM5.33542 10.3703C5.15833 10.3703 5.00208 10.2051 5.00208 9.99414C4.99167 9.88867 5.03333 9.79492 5.11667 9.71289L7.77708 7.08203C7.83958 7.02344 7.92292 7 7.99583 7C8.06875 7 8.15208 7.01172 8.225 7.09375L10.8948 9.71172C10.9677 9.79375 10.999 9.8875 10.999 9.99297C10.999 10.2051 10.8531 10.3691 10.6656 10.3691H10.3323V11.1859C10.3333 11.1965 10.3333 11.2082 10.3333 11.2188V12.5312C10.3333 12.7902 10.1469 13 9.91667 13H9.75C9.7375 13 9.725 12.9988 9.7125 12.9977C9.69688 12.9988 9.68125 13 9.66563 13H9.33333H9.08333C8.85313 13 8.66667 12.7902 8.66667 12.5312V12.25V11.5C8.66667 11.2926 8.51771 11.125 8.33333 11.125H7.66667C7.48229 11.125 7.33333 11.2926 7.33333 11.5V12.25V12.5312C7.33333 12.7902 7.14688 13 6.91667 13H6.66667L6.32813 13.0012C6.31354 13.0012 6.29896 13.0012 6.28438 13C6.27292 13.0012 6.26146 13.0012 6.25 13.0012H6.08333C5.85313 13.0012 5.66667 12.7914 5.66667 12.5324V12.3426C5.66354 12.3109 5.66146 12.2793 5.66146 12.2477L5.66875 10.3703H5.33542Z" fill="black" fill-opacity="0.5"/>
</svg>
