<svg width="16" height="16" viewBox="0 0 16 16" fill="none" xmlns="http://www.w3.org/2000/svg">
<g clip-path="url(#clip0_24_229)">
<path d="M13 6.5C13 7.93437 12.5344 9.25938 11.75 10.3344L15.7063 14.2937C16.0969 14.6844 16.0969 15.3188 15.7063 15.7094C15.3156 16.1 14.6812 16.1 14.2906 15.7094L10.3344 11.75C9.25938 12.5375 7.93437 13 6.5 13C2.90937 13 0 10.0906 0 6.5C0 2.90937 2.90937 0 6.5 0C10.0906 0 13 2.90937 13 6.5ZM3.25 6.75V8.75C3.25 9.16562 3.58437 9.5 4 9.5C4.41563 9.5 4.75 9.16562 4.75 8.75V6.75C4.75 6.33437 4.41563 6 4 6C3.58437 6 3.25 6.33437 3.25 6.75ZM5.75 3.75V8.75C5.75 9.16562 6.08437 9.5 6.5 9.5C6.91563 9.5 7.25 9.16562 7.25 8.75V3.75C7.25 3.33437 6.91563 3 6.5 3C6.08437 3 5.75 3.33437 5.75 3.75ZM8.25 5.75V8.75C8.25 9.16562 8.58438 9.5 9 9.5C9.41562 9.5 9.75 9.16562 9.75 8.75V5.75C9.75 5.33437 9.41562 5 9 5C8.58438 5 8.25 5.33437 8.25 5.75Z" fill="black" fill-opacity="0.5"/>
</g>
<defs>
<clipPath id="clip0_24_229">
<rect width="16" height="16" fill="white"/>
</clipPath>
</defs>
</svg>
