<svg width="10" height="10" viewBox="0 0 10 10" fill="none" xmlns="http://www.w3.org/2000/svg">
<g clip-path="url(#clip0_27_254)">
<path d="M7.08397 0.376953L6.13866 1.32227L8.67772 3.86133L9.62303 2.91602C10.1113 2.42773 10.1113 1.63672 9.62303 1.14844L8.8535 0.376953C8.36522 -0.111328 7.57421 -0.111328 7.08592 0.376953H7.08397ZM5.69725 1.76367L1.14452 6.31836C0.941393 6.52148 0.792955 6.77344 0.710924 7.04883L0.019518 9.39844C-0.0293102 9.56445 0.0156117 9.74219 0.136705 9.86328C0.257799 9.98438 0.435534 10.0293 0.599596 9.98242L2.94921 9.29102C3.2246 9.20899 3.47655 9.06055 3.67967 8.85742L8.23631 4.30273L5.69725 1.76367Z" fill="white"/>
</g>
<defs>
<clipPath id="clip0_27_254">
<rect width="10" height="10" fill="white"/>
</clipPath>
</defs>
</svg>
