<svg width="60" height="60" viewBox="0 0 60 60" fill="none" xmlns="http://www.w3.org/2000/svg">
<g clip-path="url(#clip0_38_340)">
<path d="M56.9386 14.6973H46.2037C45.0475 14.6973 44.1101 15.6347 44.1101 16.7909V24.0363H35.4689C34.3127 24.0363 33.3753 24.9737 33.3753 26.13V34.771H24.7341C23.5778 34.771 22.6404 35.7084 22.6404 36.8647V45.5058H13.9993C12.843 45.5058 11.9056 46.4432 11.9056 47.5995V56.9384C11.9056 58.0946 12.843 59.032 13.9993 59.032H56.9384C58.0947 59.032 59.0321 58.0946 59.0321 56.9384V16.7909C59.0322 15.6347 58.0948 14.6973 56.9386 14.6973Z" fill="white"/>
<path fill-rule="evenodd" clip-rule="evenodd" d="M4.59726 0.967773C2.593 0.967773 0.968231 2.59255 0.968231 4.5968V24.1378C0.968231 26.142 2.593 27.7668 4.59726 27.7668H24.1382C26.1425 27.7668 27.7672 26.142 27.7672 24.1378V4.59681C27.7672 2.59255 26.1425 0.967773 24.1382 0.967773H4.59726ZM11.0955 21.7971C11.9556 22.2038 12.9877 22.4071 14.1917 22.4071C15.1926 22.4071 16.1074 22.2363 16.9362 21.8947C17.7806 21.5368 18.453 21.0244 18.9534 20.3575C19.4695 19.6743 19.7275 18.8529 19.7275 17.8931C19.7275 16.8846 19.446 16.0713 18.883 15.4532C18.3357 14.8188 17.632 14.3715 16.772 14.1112V14.0136C17.5695 13.6557 18.1793 13.1921 18.6016 12.6228C19.0394 12.0535 19.2583 11.3703 19.2583 10.5732C19.2583 9.22311 18.7814 8.18206 17.8275 7.45007C16.8892 6.70181 15.6539 6.32768 14.1214 6.32768C13.2144 6.32768 12.3778 6.50661 11.6115 6.86447C10.8453 7.20607 10.1181 7.68593 9.43009 8.30406L11.1659 10.5C11.635 10.0771 12.0807 9.74364 12.5029 9.49964C12.9407 9.25565 13.4255 9.13365 13.9572 9.13365C14.5514 9.13365 15.0049 9.28818 15.3177 9.59724C15.6304 9.89004 15.7868 10.3048 15.7868 10.8416C15.7868 11.4598 15.5366 11.964 15.0362 12.3544C14.5358 12.7285 13.6132 12.9156 12.2683 12.9156V15.4532C13.3473 15.4532 14.1761 15.5426 14.7547 15.7216C15.3333 15.9005 15.7321 16.1608 15.951 16.5024C16.1699 16.8277 16.2794 17.2181 16.2794 17.6735C16.2794 18.2591 16.0604 18.7146 15.6226 19.0399C15.1847 19.349 14.5983 19.5035 13.8634 19.5035C13.2379 19.5035 12.6514 19.3571 12.1041 19.0643C11.5568 18.7715 11.0564 18.3974 10.6029 17.9419L9.00787 20.2111C9.55519 20.8618 10.2511 21.3904 11.0955 21.7971Z" fill="white"/>
</g>
<defs>
<clipPath id="clip0_38_340">
<rect width="58.0645" height="58.0645" fill="white" transform="translate(0.967743 0.967773)"/>
</clipPath>
</defs>
</svg>
