<svg width="60" height="60" viewBox="0 0 60 60" fill="none" xmlns="http://www.w3.org/2000/svg">
<path d="M49.3033 1.04498H10.6966C8.13765 1.04764 5.68425 2.06536 3.87478 3.87483C2.06532 5.6843 1.04759 8.13769 1.04494 10.6967V49.3034C1.04759 51.8624 2.06532 54.3158 3.87478 56.1252C5.68425 57.9347 8.13765 58.9524 10.6966 58.9551H49.3033C51.8623 58.9524 54.3157 57.9347 56.1252 56.1252C57.9346 54.3158 58.9524 51.8624 58.955 49.3034V10.6967C58.9524 8.13769 57.9346 5.6843 56.1252 3.87483C54.3157 2.06536 51.8623 1.04764 49.3033 1.04498ZM27.5041 35.2254L15.3564 47.3731H22.2786C22.7906 47.3731 23.2816 47.5764 23.6436 47.9384C24.0056 48.3004 24.209 48.7914 24.209 49.3034C24.209 49.8153 24.0056 50.3063 23.6436 50.6683C23.2816 51.0304 22.7906 51.2337 22.2786 51.2337H10.6966C10.1853 51.2318 9.69539 51.0278 9.3338 50.6662C8.97221 50.3046 8.76821 49.8148 8.76628 49.3034V37.7214C8.76628 37.2094 8.96966 36.7184 9.33167 36.3564C9.69367 35.9944 10.1847 35.791 10.6966 35.791C11.2086 35.791 11.6996 35.9944 12.0616 36.3564C12.4236 36.7184 12.627 37.2094 12.627 37.7214V44.6436L24.7746 32.496C25.1386 32.1443 25.6262 31.9498 26.1324 31.9542C26.6385 31.9586 27.1226 32.1616 27.4805 32.5195C27.8384 32.8774 28.0415 33.3615 28.0458 33.8676C28.0502 34.3738 27.8557 34.8614 27.5041 35.2254ZM51.2337 22.2787C51.2337 22.7906 51.0303 23.2816 50.6683 23.6436C50.3063 24.0056 49.8153 24.209 49.3033 24.209C48.7914 24.209 48.3004 24.0056 47.9384 23.6436C47.5764 23.2816 47.373 22.7906 47.373 22.2787V15.3565L35.2254 27.5041C34.8613 27.8557 34.3737 28.0503 33.8676 28.0459C33.3615 28.0415 32.8773 27.8385 32.5194 27.4806C32.1615 27.1227 31.9585 26.6385 31.9541 26.1324C31.9497 25.6263 32.1443 25.1387 32.4959 24.7746L44.6435 12.627H37.7213C37.2094 12.627 36.7184 12.4236 36.3564 12.0616C35.9944 11.6996 35.791 11.2086 35.791 10.6967C35.791 10.1847 35.9944 9.69372 36.3564 9.33171C36.7184 8.9697 37.2094 8.76633 37.7213 8.76633H49.3033C49.8147 8.76826 50.3046 8.97225 50.6662 9.33385C51.0278 9.69544 51.2317 10.1853 51.2337 10.6967V22.2787Z" fill="white"/>
</svg>
