<svg width="60" height="58" viewBox="0 0 60 58" fill="none" xmlns="http://www.w3.org/2000/svg">
<g clip-path="url(#clip0_143_2)">
<path d="M5.46364 4.3225C2.98153 4.3225 0.967743 6.83973 0.967743 9.94237V47.8709C0.967743 50.9735 2.98153 53.4908 5.46364 53.4908H14.4554V46.1225C14.4554 43.0199 16.4692 40.5026 18.9513 40.5026C21.4334 40.5026 23.4472 43.0199 23.4472 46.1225V53.4908H32.439C34.9211 53.4908 36.9349 50.9735 36.9349 47.8709V9.94237C36.9349 6.83973 34.9211 4.3225 32.439 4.3225H5.46364ZM6.96227 27.0576C6.96227 26.0273 7.63666 25.1843 8.46091 25.1843H11.4582C12.2824 25.1843 12.9568 26.0273 12.9568 27.0576V28.806C12.9568 29.8363 12.2824 30.6793 11.4582 30.6793H8.46091C7.63666 30.6793 6.96227 29.8363 6.96227 28.806V27.0576ZM17.4527 25.1843H20.45C21.2742 25.1843 21.9486 26.0273 21.9486 27.0576V28.806C21.9486 29.8363 21.2742 30.6793 20.45 30.6793H17.4527C16.6285 30.6793 15.9541 29.8363 15.9541 28.806V27.0576C15.9541 26.0273 16.6285 25.1843 17.4527 25.1843ZM24.9459 27.0576C24.9459 26.0273 25.6202 25.1843 26.4445 25.1843H29.4418C30.266 25.1843 30.9404 26.0273 30.9404 27.0576V28.806C30.9404 29.8363 30.266 30.6793 29.4418 30.6793H26.4445C25.6202 30.6793 24.9459 29.8363 24.9459 28.806V27.0576ZM8.46091 14.5221H11.4582C12.2824 14.5221 12.9568 15.3651 12.9568 16.3954V18.1438C12.9568 19.1741 12.2824 20.0171 11.4582 20.0171H8.46091C7.63666 20.0171 6.96227 19.1741 6.96227 18.1438V16.3954C6.96227 15.3651 7.63666 14.5221 8.46091 14.5221ZM15.9541 16.3954C15.9541 15.3651 16.6285 14.5221 17.4527 14.5221H20.45C21.2742 14.5221 21.9486 15.3651 21.9486 16.3954V18.1438C21.9486 19.1741 21.2742 20.0171 20.45 20.0171H17.4527C16.6285 20.0171 15.9541 19.1741 15.9541 18.1438V16.3954ZM26.4445 14.5221H29.4418C30.266 14.5221 30.9404 15.3651 30.9404 16.3954V18.1438C30.9404 19.1741 30.266 20.0171 29.4418 20.0171H26.4445C25.6202 20.0171 24.9459 19.1741 24.9459 18.1438V16.3954C24.9459 15.3651 25.6202 14.5221 26.4445 14.5221Z" fill="white"/>
</g>
<g clip-path="url(#clip1_143_2)">
<path d="M52.6938 6.72855C51.6141 5.45604 49.8606 5.45604 48.7808 6.72855L43.2525 13.2438C42.4578 14.1804 42.2245 15.5751 42.6564 16.7967C43.0883 18.0183 44.0903 18.8123 45.2133 18.8123H47.9775V38.3581H45.2133C44.099 38.3581 43.0883 39.1522 42.6564 40.3738C42.2245 41.5954 42.4664 42.9901 43.2525 43.9266L48.7808 50.4419C49.8606 51.7144 51.6141 51.7144 52.6938 50.4419L58.2222 43.9266C59.0169 42.9901 59.2501 41.5954 58.8182 40.3738C58.3863 39.1522 57.3843 38.3581 56.2614 38.3581H53.4972V18.8123H56.2614C57.3757 18.8123 58.3863 18.0183 58.8182 16.7967C59.2501 15.5751 59.0083 14.1804 58.2222 13.2438L52.6938 6.72855Z" fill="white"/>
</g>
<defs>
<clipPath id="clip0_143_2">
<rect width="36.2903" height="49.3548" fill="white" transform="translate(0.967743 4.32251)"/>
</clipPath>
<clipPath id="clip1_143_2">
<rect width="16.5899" height="45.6221" fill="white" transform="translate(42.4424 5.77417)"/>
</clipPath>
</defs>
</svg>
